<svg xmlns="http://www.w3.org/2000/svg" viewBox="0 0 297.67 297.67"><title>config</title><g id="Capa_2" data-name="Capa 2"><g id="Capa_1-2" data-name="Capa 1"><path d="M63.41,35a28.86,28.86,0,0,1,15.08,4.23,27.81,27.81,0,0,0,20.63,3.58C109.88,40.52,117,34,120.43,23.64c1.88-5.72,3.9-11.21,8.24-15.62,12.47-12.68,38.71-11,46.68,9.79,1.43,3.75,2.37,7.76,4.28,11.24a28,28,0,0,0,37.88,11.08c5.73-3.11,11.54-5.39,18.24-5C253.87,36,270,56.79,259.2,77c-2.74,5.12-5,10.26-5,16.23a28.3,28.3,0,0,0,20.12,27.38c4.35,1.37,8.69,2.65,12.35,5.54,9.22,7.27,12.43,16.92,10.45,28.2-2,11.13-8.75,18.35-19.49,21.74-4.28,1.35-8.46,2.78-12.11,5.53a28.32,28.32,0,0,0-8,35.85c2.19,4.08,4.3,8.14,4.88,12.86,1.41,11.52-3.11,20.54-12.2,27.08-9.28,6.67-19.42,7.1-29.55,1.74-5.14-2.72-10.28-5-16.25-4.94-12.76.17-23.39,7.85-27.18,20.05-1.83,5.91-4,11.47-8.65,15.87-13.55,13-40,9.55-46.72-12-1.77-5.68-3.83-11.06-8.1-15.45-8.46-8.7-22.45-11.09-33.17-5.35-4.62,2.48-9.23,4.85-14.6,5.2-11.14.72-19.78-3.9-25.94-12.85-6.33-9.21-6.69-19.1-1.47-29,2.72-5.13,5-10.26,5-16.23a28.25,28.25,0,0,0-19.94-27.28c-5.08-1.6-10-3.26-14.12-6.9-10.25-9.11-12.52-25.37-5.1-36.9a27,27,0,0,1,16.19-11.87c6.82-1.83,12.84-4.89,17.05-10.72,6.95-9.62,7.78-19.8,2.68-30.57-1.84-3.87-4-7.83-4.68-12C32.79,50.87,45.79,35.61,63.41,35Zm85.42,169.63A55.84,55.84,0,0,0,149,93c-30.67-.2-55.93,25.05-55.9,55.87A55.88,55.88,0,0,0,148.83,204.67Z"/></g></g></svg>