<?xml version="1.0" encoding="utf-8"?>
<!-- Generator: Adobe Illustrator 22.0.0, SVG Export Plug-In . SVG Version: 6.00 Build 0)  -->
<svg version="1.1" id="Capa_1" xmlns="http://www.w3.org/2000/svg" xmlns:xlink="http://www.w3.org/1999/xlink" x="0px" y="0px"
	 viewBox="0 0 366.9 366.1" style="enable-background:new 0 0 366.9 366.1;" xml:space="preserve">
<title>events</title>
<g id="Capa_2_1_">
	<g id="Capa_1-2">
		<path d="M331.8,114.6c-1.2-1.2-2.1-1.2-3.6-0.6c-12,4.8-24.3,6.1-36.9,2.8c-13.3-3.4-24.3-10.5-32.2-21.7
			c-12.5-17.6-14.5-36.8-6.5-56.8c0.7-1.3,0.4-2.9-0.8-3.8c-9.1-9.1-18.2-18.2-27.3-27.2c-1.3-1.3-2.7-2.5-4.2-3.5
			c-8.2-4.8-17.3-3.5-24.4,3.6l-40.9,40.9l28.3,28.3l-19.8,19.8L135.1,68L7.5,195.6c-0.6,0.6-1.2,1.2-1.8,1.8
			c-7.2,7.7-7,19.6,0.4,27.1c9.5,9.2,18.8,18.7,28.1,28.1c0.7,1,2,1.3,3.1,0.7c9-3.7,18.4-5.5,28.2-4.5c17.1,1.7,31.2,9.2,41.3,23.1
			c12.7,17.5,14.6,36.7,6.8,56.9c-0.8,1.3-0.4,3,0.8,4c9.1,9,18.1,18.1,27.1,27c1.3,1.3,2.7,2.5,4.2,3.6c8.1,4.8,17.4,3.4,24.5-3.7
			l128.1-128.3l-27.5-27.5l19.8-19.8l27.5,27.5l42.2-42.2c7.6-7.8,6.1-20.3-0.7-26.8C350.2,133.4,341.1,124,331.8,114.6z
			 M238.3,171.3l-41-41l19.8-19.8l41,41L238.3,171.3z"/>
	</g>
</g>
</svg>
