<svg xmlns="http://www.w3.org/2000/svg" viewBox="0 0 278.88 260.44"><title>friends</title><g id="Capa_2" data-name="Capa 2"><g id="Capa_1-2" data-name="Capa 1"><path d="M139.77,260.39c-21.47,0-42.94.05-64.41,0-8.64,0-16.83-1.91-24-7.07-9.73-7-14-16.93-14.2-28.59-.34-17.78,1.48-35.31,7.59-52.15a59.06,59.06,0,0,1,12.15-20.47c8.08-8.66,18.23-12.49,29.89-12.52a8.77,8.77,0,0,1,4.24,1.48c4.2,2.56,8.21,5.44,12.44,8q36.33,21.65,72.49-.4c4.07-2.47,7.92-5.3,12-7.65a11.23,11.23,0,0,1,5.7-1.37c15.67.66,27.13,8.22,35,21.63,5.92,10.13,8.9,21.21,10.82,32.66,1.83,10.93,2.85,22,1.94,33-1.61,19.4-14.45,31.92-33.91,33.23-7.07.47-14.19.27-21.29.28-15.5,0-31,0-46.49,0Z"/><path d="M83.59,93a55.85,55.85,0,1,1,56.09,55.77A55.54,55.54,0,0,1,83.59,93Z"/><path d="M47.38.78C57.92-1,67.93.13,76.87,6.54c7.16,5.14,12.42,11.77,14.7,20.4C96.46,45.4,87.87,63.72,71,71.24A37.59,37.59,0,0,1,24.69,57.89C15.76,44.76,14.84,21.8,34.06,6.73,38.92,3.9,41.59,2.14,47.38.78Z"/><path d="M193,130c9.39-14.19,13.18-29.42,10.85-46.32,3.14.75,6,1.52,8.83,2.1,12.63,2.57,24.51,0,35.95-5.41,3.06-1.44,6-3.08,9.06-4.59,3.9-2,7.72-1.74,10.57,1.53a33.91,33.91,0,0,1,5.91,9.54c3.43,8.65,3.95,17.9,4.51,27.08.21,3.38.19,6.78.23,10.17.13,12.77-5.95,20.63-18.47,23.56a45.43,45.43,0,0,1-9.09,1.08c-6.13.17-12.26.09-18.39,0a3.76,3.76,0,0,1-2.51-1,50.34,50.34,0,0,0-36-17.5C194.12,130.23,193.82,130.13,193,130Z"/><path d="M75,83.56c-2.25,17,1.41,32.23,10.92,46.43-2.9.38-5.5.62-8.06,1.06A48.39,48.39,0,0,0,49.26,147a4.9,4.9,0,0,1-4.15,1.83c-6.29-.1-12.59,0-18.88-.07a32.49,32.49,0,0,1-15.93-4.36c-5.76-3.31-9.66-8.19-10-14.83-.77-14.47-.24-28.89,4.36-42.84A20.65,20.65,0,0,1,10.76,77c3.36-2.8,6.66-3.27,10.48-1.16C29,80.07,37,83.72,45.61,85.64c8.93,2,17.8,1.21,26.55-1.32C72.92,84.1,73.7,83.91,75,83.56Z"/><path d="M223.44,74.43A37.21,37.21,0,0,1,222.54,0c20.86-.21,37.54,16,37.73,36.6A37,37,0,0,1,223.44,74.43Z"/></g></g></svg>