<svg xmlns="http://www.w3.org/2000/svg" viewBox="0 0 289.4 258.1"><title>home</title><g id="Capa_2" data-name="Capa 2"><g id="Capa_1-2" data-name="Capa 1"><path d="M180.49,258v-3.6q0-41.62,0-83.25a20.85,20.85,0,0,0-.51-5.36c-1.42-5.23-6-8.62-11.78-8.64q-26.28-.08-52.57,0c-7.6,0-12.47,5.2-12.48,13.08q0,42.13,0,84.28V258c-1.24.05-2.16.13-3.08.13q-24.36,0-48.71,0c-12.34,0-19.33-7-19.33-19.36q0-67.28,0-134.54A4.11,4.11,0,0,1,34.45,100Q85,72.16,135.4,44.09c3.64-2,7.15-3.75,11.39-3.08a10.46,10.46,0,0,1,3.42,1q39.67,21.93,79.31,43.94c8.64,4.78,17.29,9.56,26,14.26a3.33,3.33,0,0,1,2.14,3.34q-.08,68-.06,136.08c0,11.32-7.28,18.43-18.66,18.45-18.56.05-37.12,0-55.67,0C182.47,258.08,181.71,258,180.49,258Z"/><path d="M275.82,101.81a4.64,4.64,0,0,0,6.35-1.69l6.6-11.35a4.66,4.66,0,0,0-1.65-6.35C272.67,73.89,171,14,149.07,1.14a8.27,8.27,0,0,0-8.34,0c-30.94,18-123,72.18-138.45,81.3A4.66,4.66,0,0,0,.63,88.77l6.6,11.35a4.64,4.64,0,0,0,6.35,1.69C48,82,105.81,48.9,140.78,28.71a8.28,8.28,0,0,1,8.27,0C167.71,39.45,244.52,83.72,275.82,101.81Z"/></g></g></svg>